<?xml version="1.0" standalone="no"?>
<svg viewBox="0 0 200 200" xmlns="http://www.w3.org/2000/svg">
  <path fill="#08BDBA" d="M29.8,-50.2C38.6,-46.6,45.7,-38.5,56,-29.4C66.2,-20.3,79.6,-10.2,73.4,-3.6C67.1,3,41.2,5.9,28.8,11.2C16.4,16.5,17.4,24.2,14.8,34C12.3,43.8,6.1,55.8,-1.2,57.9C-8.5,59.9,-17,52,-30.3,48.4C-43.6,44.8,-61.9,45.5,-64.8,38.2C-67.7,30.8,-55.3,15.4,-51.6,2.1C-48,-11.2,-53.2,-22.5,-51.6,-32.2C-50.1,-41.9,-41.9,-50.1,-32.2,-53.2C-22.5,-56.3,-11.2,-54.3,-0.4,-53.6C10.5,-53,21,-53.8,29.8,-50.2Z" transform="translate(100 100)" />
</svg>
